# xmcd
#
# Track frame offsets:
#	150
#	14057
#	27323
#	45227
#	62012
#	77224
#	92830
#	107948
#	118283
#	143007
#	161301
#	178560
#	192561
#	208886
#	224609
#	245256
#
# Disc length: 3472 seconds
#
# Revision: 0
# Processed by: cddbd v1.5.1PL0 Copyright (c) Steve Scherf et al.
# Submitted via: EasyCDDAExtractor 4.6.9.1
#
DISCID=e90d8e10
DTITLE=Jimmy Buffett - License To Chill
DYEAR=2004
DGENRE=Country
TTITLE0=Hey Good Lookin (w-Clint Black, Kenny Chesney, Alan Jackson, Toby Keit
TTITLE0=h and George Strait)
TTITLE1=Boats To Build (With Alan Jackson)
TTITLE2=License To Chill (With Kenny Chesney)
TTITLE3=Coast Of Carolina
TTITLE4=Piece Of Work (With Toby Keith)
TTITLE5=Anything Anytime Anywhere
TTITLE6=Trip Around The Sun (With Martina McBride)
TTITLE7=Simply Complicated
TTITLE8=Coastal Confessions
TTITLE9=Sea Of Heartbreak (With George Strait)
TTITLE10=Conky Tonkin (With Clint Black)
TTITLE11=Playin The Loser Again (With Bill Withers)
TTITLE12=Window On The World
TTITLE13=Someone I Used To Love (With Nanci Griffith)
TTITLE14=Scarlet Begonias
TTITLE15=Back To The Island
EXTD=
EXTT0=
EXTT1=
EXTT2=
EXTT3=
EXTT4=
EXTT5=
EXTT6=
EXTT7=
EXTT8=
EXTT9=
EXTT10=
EXTT11=
EXTT12=
EXTT13=
EXTT14=
EXTT15=
PLAYORDER=
